# xmcd CD database file
#
# Track frame offsets:
#	150
#	11085
#	27174
#	43096
#	55762
#	87525
#	99795
#	132627
#	160084
#	176207
#	202353
#	229562
#	241561
#	255210
#
# Disc length: 3669 seconds
#
# Revision: 0
# Processed by: cddbd v1.5.2PL0 Copyright (c) Steve Scherf et al.
# Submitted via: CDex 1.70beta2
#
DISCID=b10e530e
DTITLE=EMIプレミアム・ツインベスト - ジャズ・スタンダード・ベスト_Disc1
DYEAR=2012
DGENRE=Jazz
TTITLE0=バードランドの子守唄
TTITLE1=酒とバラの日々
TTITLE2=枯葉
TTITLE3=二人でお茶を (モノーラル録音)
TTITLE4=アイ・ラヴ・ユー
TTITLE5=A列車で行こう
TTITLE6=サテン・ドール
TTITLE7=恋とは何でしょう (モノーラル録音)
TTITLE8=言い出しかねて (モノーラル録音)
TTITLE9=昔は良かったね (モノーラル録音)
TTITLE10=イット・クッド・ハプン・トゥ・ユー (モノーラル録音)
TTITLE11=バット・ノット・フォー・ミー (モノーラル録音
TTITLE12=イエスタデイズ (モノーラル録音)
TTITLE13=降っても晴れても (モノーラル録音)
EXTD=YEAR: 2012
EXTT0=
EXTT1=
EXTT2=
EXTT3=
EXTT4=
EXTT5=
EXTT6=
EXTT7=
EXTT8=
EXTT9=
EXTT10=
EXTT11=
EXTT12=
EXTT13=
PLAYORDER=
